<svg width="33" height="33" viewBox="0 0 33 33" fill="none" xmlns="http://www.w3.org/2000/svg">
<g clip-path="url(#clip0_791_15)">
<path d="M27.2651 0.603516H5.26514C2.50371 0.603516 0.265137 2.84209 0.265137 5.60352V27.6035C0.265137 30.3649 2.50371 32.6035 5.26514 32.6035H27.2651C30.0266 32.6035 32.2651 30.3649 32.2651 27.6035V5.60352C32.2651 2.84209 30.0266 0.603516 27.2651 0.603516Z" fill="#FDAE16"/>
<path d="M28.6589 6.53822C28.6832 6.54167 28.6796 6.5816 28.6552 6.58464C27.4978 6.72897 26.6816 7.40193 25.9718 8.24716C25.078 9.30837 24.4621 10.5274 23.9062 11.7846C22.9851 13.8799 22.3528 16.0677 21.6989 18.2555C21.3882 19.2896 21.0339 20.3073 20.478 21.2378C20.2436 21.6297 19.9656 22.0052 19.6441 22.3263C18.8974 23.061 17.8509 22.9957 17.1533 22.212C16.6301 21.6189 16.2812 20.9222 16.0905 20.1712C15.7198 18.7126 15.4147 17.2378 15.0822 15.7684C15.0331 15.5561 14.9895 15.3329 14.9078 15.1316C14.8261 14.9248 14.668 14.9193 14.5753 15.1208C14.4554 15.3656 14.3573 15.6268 14.2974 15.8935C13.8068 18.0269 13.349 20.1657 12.8476 22.2937C12.6459 23.1535 12.3952 24.0025 12.1118 24.8352C11.9755 25.2379 11.763 25.6353 11.5122 25.9727C10.6947 27.0774 9.37575 27.0993 8.47097 26.0597C8.09484 25.6297 7.86058 25.1237 7.66437 24.5958C7.39727 23.8828 7.14104 23.159 6.81405 22.4732C6.36172 21.5263 5.68045 20.7971 4.60675 20.5467C4.34494 20.4867 4.29334 20.1639 4.54707 20.0758C4.94749 19.9368 5.35144 19.8468 5.77307 19.8175C6.97754 19.7357 7.94777 20.1984 8.64534 21.1508C9.03777 21.6841 9.32117 22.3046 9.66458 22.8814C9.66684 22.8852 9.66912 22.8889 9.67143 22.8926C9.80493 23.1093 10.1785 23.0584 10.2369 22.8106C10.771 20.4923 11.278 18.163 11.8339 15.85C12.1609 14.4894 12.575 13.1506 13.2836 11.9316C13.458 11.6322 13.6652 11.3383 13.905 11.0934C14.7225 10.2445 15.9542 10.3968 16.5756 11.4091C16.9462 12.0186 17.0988 12.7043 17.2296 13.39C17.513 14.9466 17.7801 16.503 18.0635 18.0596C18.1235 18.3806 18.2325 18.7018 18.3414 19.0119C18.3742 19.1099 18.4886 19.2188 18.5812 19.2351C18.6467 19.2459 18.772 19.1208 18.8047 19.0338C19.05 18.3698 19.3062 17.7113 19.5023 17.0309C20.0201 15.2948 20.4617 13.537 21.1757 11.8662C21.8188 10.3587 22.5927 8.93286 23.819 7.80088C25.2088 6.52195 26.8276 6.13546 28.6589 6.53822Z" fill="white" fill-opacity="0.65"/>
</g>
<defs>
<clipPath id="clip0_791_15">
<rect width="33" height="33" fill="white"/>
</clipPath>
</defs>
</svg>
