<svg width="28" height="28" viewBox="0 0 28 28" fill="none" xmlns="http://www.w3.org/2000/svg">
<path d="M15.1358 28.0009C14.0527 28.0009 13.1712 27.1194 13.1712 26.0363C13.1712 21.1075 9.16176 17.0981 4.233 17.0981C3.14991 17.0981 2.26843 16.2167 2.26843 15.1336C2.26843 14.0506 3.14991 13.1692 4.233 13.1692C9.16176 13.1692 13.1712 9.16051 13.1712 4.23311C13.1712 3.15003 14.0527 2.26855 15.1358 2.26855C16.2187 2.26855 17.1002 3.15003 17.1002 4.23311C17.1002 9.16051 21.1089 13.1692 26.0356 13.1692C27.1186 13.1692 28 14.0506 28 15.1336C28 16.2167 27.1186 17.0981 26.0356 17.0981C21.1082 17.0981 17.1002 21.1075 17.1002 26.0363C17.1002 27.1194 16.2187 28.0009 15.1358 28.0009Z" fill="#1A1A1A"/>
<path d="M14.8837 27.749C13.8006 27.749 12.9192 26.8675 12.9192 25.7844C12.9192 20.8556 8.90982 16.8462 3.98092 16.8462C2.89784 16.8462 2.01636 15.9647 2.01636 14.8816C2.01636 13.7987 2.89784 12.9172 3.98092 12.9172C8.90982 12.9172 12.9192 8.90856 12.9192 3.98116C12.9192 2.89808 13.8006 2.0166 14.8837 2.0166C15.9667 2.0166 16.8481 2.89808 16.8481 3.98116C16.8481 8.90856 20.8568 12.9172 25.7835 12.9172C26.8665 12.9172 27.748 13.7987 27.748 14.8816C27.748 15.9647 26.8665 16.8462 25.7835 16.8462C20.8561 16.8462 16.8481 20.8556 16.8481 25.7844C16.8481 26.8675 15.9667 27.749 14.8837 27.749Z" fill="#1A1A1A"/>
<path d="M14.6318 27.497C13.5487 27.497 12.6672 26.6155 12.6672 25.5324C12.6672 20.6036 8.65786 16.5942 3.72897 16.5942C2.64589 16.5942 1.7644 15.7128 1.7644 14.6297C1.7644 13.5466 2.64589 12.6651 3.72897 12.6651C8.65786 12.6651 12.6672 8.65647 12.6672 3.72921C12.6672 2.64613 13.5487 1.76465 14.6318 1.76465C15.7147 1.76465 16.5962 2.64613 16.5962 3.72921C16.5962 8.65647 20.6049 12.6651 25.5316 12.6651C26.6147 12.6651 27.4962 13.5466 27.4962 14.6297C27.4962 15.7128 26.6147 16.5942 25.5316 16.5942C20.6042 16.5942 16.5962 20.6036 16.5962 25.5324C16.5962 26.6155 15.7147 27.497 14.6318 27.497Z" fill="#1A1A1A"/>
<path d="M14.3798 27.245C13.2967 27.245 12.4152 26.3636 12.4152 25.2805C12.4152 20.3516 8.40591 16.3423 3.47701 16.3423C2.39393 16.3423 1.51245 15.4608 1.51245 14.3777C1.51245 13.2946 2.39393 12.4132 3.47701 12.4132C8.40591 12.4132 12.4152 8.40452 12.4152 3.47725C12.4152 2.39417 13.2967 1.5127 14.3798 1.5127C15.4629 1.5127 16.3444 2.39417 16.3444 3.47725C16.3444 8.40452 20.353 12.4132 25.2796 12.4132C26.3627 12.4132 27.2442 13.2946 27.2442 14.3777C27.2442 15.4608 26.3627 16.3423 25.2796 16.3423C20.3522 16.3423 16.3444 20.3516 16.3444 25.2805C16.3444 26.3636 15.4629 27.245 14.3798 27.245Z" fill="#1A1A1A"/>
<path d="M14.1271 26.9931C13.0442 26.9931 12.1627 26.1116 12.1627 25.0285C12.1627 20.0997 8.15321 16.0903 3.22445 16.0903C2.14137 16.0903 1.25989 15.2089 1.25989 14.1258C1.25989 13.0428 2.14137 12.1613 3.22445 12.1613C8.15321 12.1613 12.1627 8.1527 12.1627 3.2253C12.1627 2.14222 13.0442 1.26074 14.1271 1.26074C15.2102 1.26074 16.0917 2.14222 16.0917 3.2253C16.0917 8.1527 20.1003 12.1613 25.0271 12.1613C26.11 12.1613 26.9915 13.0428 26.9915 14.1258C26.9915 15.2089 26.11 16.0903 25.0271 16.0903C20.0997 16.0903 16.0917 20.0997 16.0917 25.0285C16.0917 26.1116 15.2102 26.9931 14.1271 26.9931Z" fill="#1A1A1A"/>
<path d="M13.8752 26.7411C12.7921 26.7411 11.9106 25.8597 11.9106 24.7766C11.9106 19.8477 7.90114 15.8384 2.97238 15.8384C1.88929 15.8384 1.00781 14.9569 1.00781 13.8738C1.00781 12.7909 1.88929 11.9094 2.97238 11.9094C7.90114 11.9094 11.9106 7.90074 11.9106 2.97335C11.9106 1.89027 12.7921 1.00879 13.8752 1.00879C14.9581 1.00879 15.8396 1.89027 15.8396 2.97335C15.8396 7.90074 19.8483 11.9094 24.775 11.9094C25.8579 11.9094 26.7394 12.7909 26.7394 13.8738C26.7394 14.9569 25.8579 15.8384 24.775 15.8384C19.8476 15.8384 15.8396 19.8477 15.8396 24.7766C15.8396 25.8597 14.9581 26.7411 13.8752 26.7411Z" fill="#1A1A1A"/>
<path d="M13.6232 26.4892C12.5401 26.4892 11.6587 25.6077 11.6587 24.5246C11.6587 19.5959 7.64932 15.5864 2.72042 15.5864C1.63734 15.5864 0.755859 14.7049 0.755859 13.6219C0.755859 12.5389 1.63734 11.6574 2.72042 11.6574C7.64932 11.6574 11.6587 7.64879 11.6587 2.72139C11.6587 1.63831 12.5401 0.756836 13.6232 0.756836C14.7062 0.756836 15.5876 1.63831 15.5876 2.72139C15.5876 7.64879 19.5963 11.6574 24.523 11.6574C25.606 11.6574 26.4875 12.5389 26.4875 13.6219C26.4875 14.7049 25.606 15.5864 24.523 15.5864C19.5956 15.5864 15.5876 19.5959 15.5876 24.5246C15.5876 25.6077 14.7062 26.4892 13.6232 26.4892Z" fill="#1A1A1A"/>
<path d="M13.3713 26.2372C12.2882 26.2372 11.4067 25.3558 11.4067 24.2727C11.4067 19.3439 7.39737 15.3345 2.46847 15.3345C1.38539 15.3345 0.503906 14.453 0.503906 13.37C0.503906 12.287 1.38539 11.4055 2.46847 11.4055C7.39737 11.4055 11.4067 7.39684 11.4067 2.46944C11.4067 1.38636 12.2882 0.504883 13.3713 0.504883C14.4542 0.504883 15.3357 1.38636 15.3357 2.46944C15.3357 7.39684 19.3444 11.4055 24.2711 11.4055C25.3542 11.4055 26.2357 12.287 26.2357 13.37C26.2357 14.453 25.3542 15.3345 24.2711 15.3345C19.3437 15.3345 15.3357 19.3439 15.3357 24.2727C15.3357 25.3558 14.4542 26.2372 13.3713 26.2372Z" fill="#1A1A1A"/>
<path d="M13.1193 25.9853C12.0362 25.9853 11.1547 25.1038 11.1547 24.0207C11.1547 19.092 7.14541 15.0825 2.21652 15.0825C1.13343 15.0825 0.251953 14.201 0.251953 13.1181C0.251953 12.035 1.13343 11.1535 2.21652 11.1535C7.14541 11.1535 11.1547 7.14489 11.1547 2.21749C11.1547 1.13441 12.0362 0.25293 13.1193 0.25293C14.2024 0.25293 15.0839 1.13441 15.0839 2.21749C15.0839 7.14489 19.0925 11.1535 24.0191 11.1535C25.1022 11.1535 25.9837 12.035 25.9837 13.1181C25.9837 14.201 25.1022 15.0825 24.0191 15.0825C19.0917 15.0825 15.0839 19.092 15.0839 24.0207C15.0839 25.1038 14.2024 25.9853 13.1193 25.9853Z" fill="#1A1A1A"/>
<path d="M12.8674 25.7324C11.7843 25.7324 10.9028 24.8509 10.9028 23.7678C10.9028 18.8389 6.89346 14.8296 1.96456 14.8296C0.881481 14.8296 0 13.9481 0 12.865C0 11.7821 0.881481 10.9006 1.96456 10.9006C6.89346 10.9006 10.9028 6.89196 10.9028 1.96456C10.9028 0.881479 11.7843 0 12.8674 0C13.9504 0 14.8319 0.881479 14.8319 1.96456C14.8319 6.89196 18.8406 10.9006 23.7672 10.9006C24.8503 10.9006 25.7317 11.7821 25.7317 12.865C25.7317 13.9481 24.8503 14.8296 23.7672 14.8296C18.8398 14.8296 14.8319 18.8389 14.8319 23.7678C14.8319 24.8509 13.9504 25.7324 12.8674 25.7324Z" fill="#1A1A1A"/>
<path d="M12.8674 25.7324C11.7843 25.7324 10.9028 24.8509 10.9028 23.7678C10.9028 18.8389 6.89346 14.8296 1.96456 14.8296C0.881481 14.8296 0 13.9481 0 12.865C0 11.7821 0.881481 10.9006 1.96456 10.9006C6.89346 10.9006 10.9028 6.89196 10.9028 1.96456C10.9028 0.881479 11.7843 0 12.8674 0C13.9504 0 14.8319 0.881479 14.8319 1.96456C14.8319 6.89196 18.8406 10.9006 23.7672 10.9006C24.8503 10.9006 25.7317 11.7821 25.7317 12.865C25.7317 13.9481 24.8503 14.8296 23.7672 14.8296C18.8398 14.8296 14.8319 18.8389 14.8319 23.7678C14.8319 24.8509 13.9504 25.7324 12.8674 25.7324Z" fill="#1A1A1A"/>
<path d="M23.7672 11.6563C18.4228 11.6563 14.0752 7.30889 14.0752 1.96452C14.0752 1.29693 13.5341 0.755859 12.8665 0.755859C12.1991 0.755859 11.658 1.29693 11.658 1.96452C11.658 7.30889 7.30893 11.6563 1.96306 11.6563C1.2956 11.6563 0.754395 12.1975 0.754395 12.865C0.754395 13.5326 1.2956 14.0736 1.96306 14.0736C7.30893 14.0736 11.658 18.4227 11.658 23.7678C11.658 24.4352 12.1991 24.9764 12.8665 24.9764C13.5341 24.9764 14.0752 24.4352 14.0752 23.7678C14.0752 18.4219 18.4228 14.0736 23.7672 14.0736C24.4346 14.0736 24.9758 13.5326 24.9758 12.865C24.9758 12.1975 24.4346 11.6563 23.7672 11.6563Z" fill="#FD6036"/>
</svg>
