<svg width="570" height="570" viewBox="0 0 570 570" fill="none" xmlns="http://www.w3.org/2000/svg">
<rect width="570" height="570" rx="71" fill="#FD6036"/>
<path d="M508 106.298C486.156 108.237 471.012 120.548 457.905 136.156C441.984 155.059 431.013 176.773 421.11 199.168C404.703 236.49 393.441 275.46 381.792 314.43C376.258 332.849 369.948 350.977 360.045 367.552C355.87 374.533 350.919 381.222 345.191 386.94C331.891 400.028 313.251 398.864 300.824 384.905C291.504 374.34 285.29 361.931 281.894 348.553C275.291 322.572 269.856 296.302 263.932 270.128C263.059 266.347 262.283 262.372 260.827 258.786C259.37 255.101 256.555 255.004 254.903 258.593C252.767 262.954 251.021 267.607 249.954 272.357C241.215 310.358 233.061 348.456 224.129 386.361C220.537 401.675 216.072 416.799 211.024 431.63C208.595 438.805 204.81 445.882 200.343 451.893C185.781 471.571 162.288 471.959 146.171 453.443C139.471 445.784 135.299 436.769 131.804 427.366C127.046 414.667 122.482 401.774 116.657 389.558C108.6 372.691 96.4652 359.702 77.3399 355.242C72.679 354.174 67.7277 353.788 62 352.916C73.9415 347.002 85.5905 343.124 98.1149 342.252C119.57 340.797 136.852 349.038 149.277 366.002C156.267 375.502 161.315 386.554 167.432 396.829C169.179 399.738 171.704 402.257 173.84 404.875C175.102 401.774 176.849 398.864 177.625 395.568C187.141 354.273 196.17 312.783 206.072 271.582C211.897 247.347 219.274 223.499 231.896 201.785C235.001 196.453 238.692 191.218 242.964 186.855C257.525 171.733 279.466 174.448 290.534 192.479C297.135 203.336 299.854 215.55 302.183 227.764C307.231 255.49 311.989 283.214 317.037 310.94C318.106 316.658 320.048 322.379 321.988 327.904C322.571 329.65 324.61 331.589 326.26 331.879C327.426 332.072 329.658 329.843 330.241 328.293C334.609 316.465 339.173 304.737 342.666 292.617C351.889 261.693 359.755 230.381 372.473 200.621C383.928 173.769 397.713 148.37 419.557 128.207C444.313 105.426 473.148 98.5418 505.767 105.716C506.447 105.813 507.224 106.105 508 106.298Z" fill="#FFC1B1"/>
</svg>
